<svg width="58" height="24" xmlns="http://www.w3.org/2000/svg" xmlns:xlink="http://www.w3.org/1999/xlink">
 <title>rs_school_js</title>
 <defs>
  <ellipse ry="51.8" rx="63" cy="67.9" cx="420.5" transform="rotate(-37.000999450683594 420.4599914550782,67.8799972534179) " id="SVGID_1_"/>
 </defs>
 <clipPath id="SVGID_2_">
  <use x="-7.319229" y="43.665375" id="svg_1" xlink:href="#SVGID_1_"/>
 </clipPath>
 <g>
  <title>background</title>
  <rect fill="none" id="canvas_background" height="26" width="60" y="-1" x="-1"/>
 </g>
 <g>
  <title>Layer 1</title>
  <defs>
   <path d="m330.9,-14.2l179.8,0l0,165.1l-179.8,0l0,-165.1z" transform="rotate(-37.000999450683594 420.82000732421875,68.35299682617185) " id="SVGID_3_"/>
  </defs>
  <clipPath id="SVGID_4_">
   <use x="-7.319229" y="43.665375" id="svg_9" xlink:href="#SVGID_3_"/>
  </clipPath>
  <defs clip-path="url(#SVGID_4_)">
   <ellipse ry="51.8" rx="63" cy="67.9" cx="420.5" transform="rotate(-37.000999450683594 420.4599914550782,67.8799972534179) " id="SVGID_5_"/>
  </defs>
  <clipPath clip-path="url(#SVGID_4_)" id="SVGID_6_">
   <use x="-7.319229" y="43.665375" id="svg_11" xlink:href="#SVGID_5_"/>
  </clipPath>
  <defs clip-path="url(#SVGID_6_)">
   <path d="m357.8,17l125.9,0l0,103.7l-125.9,0l0,-103.7z" transform="rotate(-37 420.79901123046875,68.8020019531249) " id="SVGID_7_"/>
  </defs>
  <clipPath clip-path="url(#SVGID_6_)" id="SVGID_8_">
   <use x="-7.319229" y="43.665375" id="svg_14" xlink:href="#SVGID_7_"/>
  </clipPath>
  <defs clip-path="url(#SVGID_6_)">
   <path d="m357.8,17l125.9,0l0,103.7l-125.9,0l0,-103.7z" transform="rotate(-37 420.79901123046875,68.8020019531249) " id="SVGID_9_"/>
  </defs>
  <clipPath clip-path="url(#SVGID_6_)" id="SVGID_10_">
   <use x="-7.319229" y="43.665375" id="svg_20" xlink:href="#SVGID_9_"/>
  </clipPath>
  <g stroke="null" id="svg_27">
   <path fill="#5f158e" stroke="null" id="svg_2" d="m29.911057,7.983737l2.650651,-0.171335c0.060471,0.433376 0.171335,0.755889 0.352748,0.987695c0.292277,0.362827 0.695418,0.54424 1.22958,0.54424c0.393062,0 0.705497,-0.090707 0.917145,-0.282199c0.20157,-0.151178 0.322513,-0.393062 0.322513,-0.645025c0,-0.241885 -0.110864,-0.473691 -0.302356,-0.624868c-0.20157,-0.181413 -0.675261,-0.362827 -1.421072,-0.524083c-1.219501,-0.27212 -2.096333,-0.634947 -2.610337,-1.098559c-0.514005,-0.433376 -0.806282,-1.068323 -0.786125,-1.743584c0,-0.463612 0.141099,-0.927224 0.403141,-1.310208c0.302356,-0.433376 0.715575,-0.776046 1.209423,-0.967538c0.534162,-0.231806 1.279972,-0.352748 2.217275,-0.352748c1.148951,0 2.025783,0.211649 2.630494,0.645025c0.604711,0.423298 0.967538,1.108637 1.078402,2.04594l-2.620416,0.151178c-0.07055,-0.403141 -0.211649,-0.695418 -0.443455,-0.88691s-0.534162,-0.282199 -0.927224,-0.282199c-0.322513,0 -0.564397,0.07055 -0.725654,0.20157c-0.151178,0.120942 -0.251963,0.302356 -0.241885,0.503926c0,0.151178 0.080628,0.292277 0.20157,0.382984c0.131021,0.120942 0.443455,0.231806 0.937303,0.332591c1.219501,0.262042 2.086254,0.524083 2.620416,0.796203c0.534162,0.27212 0.917145,0.604711 1.148951,0.997774c0.241885,0.403141 0.362827,0.866753 0.352748,1.340443c0,0.564397 -0.161256,1.128794 -0.483769,1.602485c-0.332591,0.493848 -0.796203,0.876831 -1.340443,1.108637c-0.574476,0.251963 -1.300129,0.382984 -2.166882,0.382984c-1.531935,0 -2.59018,-0.292277 -3.184813,-0.88691s-0.947381,-1.340443 -1.017931,-2.24751zm-28.129155,2.983242l0,-9.010199l4.646199,0c0.856674,0 1.521857,0.07055 1.97539,0.221727c0.443455,0.141099 0.836517,0.433376 1.098559,0.826439c0.292277,0.433376 0.433376,0.937303 0.423298,1.461386c0.030236,0.88691 -0.423298,1.733506 -1.199344,2.176961c-0.302356,0.171335 -0.634947,0.292277 -0.977617,0.352748c0.251963,0.07055 0.503926,0.191492 0.725654,0.332591c0.171335,0.141099 0.312434,0.302356 0.443455,0.473691c0.151178,0.171335 0.282199,0.362827 0.393062,0.564397l1.350522,2.610337l-3.164656,0l-1.491621,-2.771594c-0.191492,-0.352748 -0.352748,-0.584554 -0.503926,-0.695418c-0.20157,-0.141099 -0.443455,-0.211649 -0.685339,-0.211649l-0.241885,0l0,3.658503l-2.791751,0l0,0.010079zm2.791751,-5.361774l1.179187,0c0.251963,-0.020157 0.493848,-0.060471 0.735732,-0.120942c0.181413,-0.030236 0.34267,-0.131021 0.453533,-0.282199c0.27212,-0.362827 0.231806,-0.876831 -0.100785,-1.189266c-0.181413,-0.151178 -0.534162,-0.231806 -1.038088,-0.231806l-1.22958,0l0,1.824212zm-3.426697,13.081921l2.650651,-0.171335c0.060471,0.433376 0.171335,0.755889 0.352748,0.987695c0.282199,0.362827 0.695418,0.554319 1.22958,0.554319c0.393062,0 0.705497,-0.090707 0.917145,-0.282199c0.20157,-0.161256 0.322513,-0.393062 0.322513,-0.645025c0,-0.241885 -0.110864,-0.473691 -0.302356,-0.624868c-0.20157,-0.181413 -0.675261,-0.362827 -1.43115,-0.524083c-1.219501,-0.27212 -2.096333,-0.634947 -2.610337,-1.098559c-0.514005,-0.433376 -0.806282,-1.068323 -0.786125,-1.743584c0,-0.463612 0.141099,-0.927224 0.403141,-1.310208c0.302356,-0.433376 0.715575,-0.776046 1.209423,-0.967538c0.534162,-0.231806 1.279972,-0.352748 2.217275,-0.352748c1.148951,0 2.025783,0.211649 2.630494,0.645025s0.95746,1.108637 1.068323,2.04594l-2.620416,0.151178c-0.07055,-0.403141 -0.211649,-0.695418 -0.443455,-0.88691c-0.221727,-0.191492 -0.534162,-0.282199 -0.927224,-0.27212c-0.322513,0 -0.564397,0.07055 -0.725654,0.211649c-0.161256,0.120942 -0.251963,0.302356 -0.241885,0.503926c0,0.151178 0.080628,0.292277 0.20157,0.382984c0.131021,0.120942 0.443455,0.231806 0.937303,0.332591c1.219501,0.262042 2.086254,0.524083 2.620416,0.796203c0.534162,0.27212 0.917145,0.604711 1.148951,0.997774c0.241885,0.403141 0.362827,0.866753 0.362827,1.330365c0,0.564397 -0.171335,1.118716 -0.483769,1.592406c-0.332591,0.493848 -0.796203,0.876831 -1.340443,1.108637c-0.574476,0.251963 -1.300129,0.382984 -2.166882,0.382984c-1.531935,0 -2.59018,-0.292277 -3.184813,-0.88691c-0.594633,-0.604711 -0.927224,-1.350522 -1.007852,-2.257589z"/>
   <path fill="#5f158e" stroke="null" id="svg_3" d="m14.551389,17.98163l2.439002,0.735732c-0.131021,0.61479 -0.403141,1.199344 -0.776046,1.713349c-0.34267,0.453533 -0.796203,0.806282 -1.310208,1.038088c-0.524083,0.231806 -1.189266,0.352748 -1.995547,0.352748c-0.977617,0 -1.783898,-0.141099 -2.398688,-0.423298c-0.624868,-0.282199 -1.15903,-0.786125 -1.612564,-1.5017c-0.453533,-0.715575 -0.675261,-1.632721 -0.675261,-2.751436c0,-1.491621 0.393062,-2.640573 1.189266,-3.436776s1.914919,-1.199344 3.366226,-1.199344c1.138873,0 2.025783,0.231806 2.680887,0.685339c0.645025,0.463612 1.128794,1.169109 1.451307,2.11649l-2.459159,0.54424c-0.060471,-0.211649 -0.151178,-0.423298 -0.27212,-0.604711c-0.151178,-0.211649 -0.34267,-0.372905 -0.574476,-0.493848c-0.231806,-0.120942 -0.493848,-0.171335 -0.755889,-0.171335c-0.634947,0 -1.118716,0.251963 -1.451307,0.765968c-0.251963,0.372905 -0.382984,0.967538 -0.382984,1.77382c0,0.997774 0.151178,1.683113 0.453533,2.056018c0.302356,0.372905 0.725654,0.554319 1.279972,0.554319c0.534162,0 0.937303,-0.151178 1.209423,-0.443455c0.27212,-0.312434 0.473691,-0.745811 0.594633,-1.310208zm5.694365,-5.32146l2.781672,0l0,3.154577l3.043714,0l0,-3.154577l2.801829,0l0,9.010199l-2.801829,0l0,-3.648425l-3.043714,0l0,3.648425l-2.781672,0l0,-9.010199z"/>
   <path fill="#5f158e" stroke="null" id="svg_4" d="m28.489985,17.16527c0,-1.471464 0.413219,-2.620416 1.22958,-3.436776c0.81636,-0.81636 1.965312,-1.22958 3.426697,-1.22958c1.5017,0 2.650651,0.403141 3.467012,1.209423s1.219501,1.935076 1.219501,3.386383c0,1.058245 -0.181413,1.914919 -0.534162,2.59018c-0.34267,0.665182 -0.876831,1.209423 -1.531935,1.572249c-0.675261,0.372905 -1.511778,0.564397 -2.509552,0.564397c-1.017931,0 -1.854448,-0.161256 -2.51963,-0.483769c-0.685339,-0.34267 -1.249737,-0.876831 -1.622642,-1.531935c-0.413219,-0.705497 -0.624868,-1.582328 -0.624868,-2.640573zm2.781672,0.010079c0,0.907067 0.171335,1.562171 0.503926,1.965312c0.332591,0.393062 0.796203,0.594633 1.380757,0.594633c0.594633,0 1.058245,-0.191492 1.390836,-0.584554s0.493848,-1.08848 0.493848,-2.096333c0,-0.846596 -0.171335,-1.471464 -0.514005,-1.854448c-0.34267,-0.393062 -0.806282,-0.584554 -1.390836,-0.584554c-0.514005,-0.020157 -1.007852,0.20157 -1.350522,0.594633c-0.34267,0.393062 -0.514005,1.048166 -0.514005,1.965312zm9.413339,-0.010079c0,-1.471464 0.413219,-2.620416 1.22958,-3.436776c0.81636,-0.81636 1.965312,-1.22958 3.426697,-1.22958c1.5017,0 2.66073,0.403141 3.467012,1.209423s1.219501,1.935076 1.219501,3.386383c0,1.058245 -0.181413,1.914919 -0.534162,2.59018c-0.34267,0.665182 -0.876831,1.209423 -1.531935,1.572249c-0.675261,0.372905 -1.511778,0.564397 -2.509552,0.564397c-1.017931,0 -1.854448,-0.161256 -2.51963,-0.483769c-0.685339,-0.34267 -1.249737,-0.876831 -1.622642,-1.531935c-0.413219,-0.705497 -0.624868,-1.582328 -0.624868,-2.640573zm2.781672,0.010079c0,0.907067 0.171335,1.562171 0.503926,1.965312c0.332591,0.393062 0.796203,0.594633 1.380757,0.594633c0.594633,0 1.058245,-0.191492 1.390836,-0.584554c0.332591,-0.393062 0.493848,-1.08848 0.493848,-2.096333c0,-0.846596 -0.171335,-1.471464 -0.514005,-1.854448c-0.34267,-0.393062 -0.806282,-0.584554 -1.390836,-0.584554c-0.514005,-0.020157 -1.017931,0.20157 -1.350522,0.594633c-0.34267,0.393062 -0.514005,1.048166 -0.514005,1.965312z"/>
   <path fill="#5f158e" stroke="null" id="svg_5" d="m49.735509,12.660171l2.781672,0l0,6.792924l4.343843,0l0,2.217275l-7.135593,0l0,-9.010199l0.010079,0z"/>
   <path stroke="null" clip-path="url(#SVGID_2_)" fill="#5f158e" id="svg_8" d="m31.314252,6.827521l14.472029,-10.905852l10.014217,13.288832l-14.472029,10.905852l-10.014217,-13.288832z" class="st0"/>
   <path stroke="null" clip-path="url(#SVGID_6_)" fill="#5f158e" id="svg_13" d="m35.340536,7.714137l10.133773,-7.636346l6.289826,8.346881l-10.133773,7.636346l-6.289826,-8.346881z" class="st0"/>
   <ellipse stroke="#000000" stroke-miterlimit="10" stroke-width="4" fill="#5f158e" clip-path="url(#SVGID_8_)" id="svg_16" ry="51.8" rx="63" cy="114.587602" cx="281.471156" class="st5" transform="matrix(0.0804895965799568,-0.060655462833146934,0.060655462833146934,0.0804895965799568,13.921677119564501,15.820478738692525) "/>
   <path stroke="#000000" stroke-miterlimit="10" stroke-width="4" fill="#5f158e" clip-path="url(#SVGID_8_)" id="svg_17" d="m35.340536,7.714137l10.133773,-7.636346l6.289826,8.346881l-10.133773,7.636346l-6.289826,-8.346881z" class="st6"/>
   <ellipse stroke="#000000" stroke-miterlimit="10" stroke-width="4" fill="#5f158e" clip-path="url(#SVGID_6_)" id="svg_18" ry="51.8" rx="63" cy="114.587602" cx="281.471156" class="st7" transform="matrix(0.0804895965799568,-0.060655462833146934,0.060655462833146934,0.0804895965799568,13.921677119564501,15.820478738692525) "/>
   <path stroke="null" clip-path="url(#SVGID_6_)" fill="#5f158e" id="svg_19" d="m35.340536,7.714137l10.133773,-7.636346l6.289826,8.346881l-10.133773,7.636346l-6.289826,-8.346881z" class="st0"/>
   <ellipse stroke="#000000" clip-path="url(#SVGID_10_)" stroke-miterlimit="10" stroke-width="4" fill="#5f158e" id="svg_22" ry="51.8" rx="63" cy="114.587602" cx="281.471156" class="st5" transform="matrix(0.0804895965799568,-0.060655462833146934,0.060655462833146934,0.0804895965799568,13.921677119564501,15.820478738692525) "/>
   <path stroke="#000000" stroke-miterlimit="10" stroke-width="4" fill="#5f158e" clip-path="url(#SVGID_10_)" id="svg_23" d="m35.340536,7.714137l10.133773,-7.636346l6.289826,8.346881l-10.133773,7.636346l-6.289826,-8.346881z" class="st9"/>
   <path stroke="#000000" stroke-miterlimit="10" stroke-width="4" fill="#5f158e" clip-path="url(#SVGID_6_)" id="svg_24" d="m31.314252,6.827521l14.472029,-10.905852l10.014217,13.288832l-14.472029,10.905852l-10.014217,-13.288832z" class="st7"/>
   <path fill="#5f158e" stroke="null" clip-path="url(#SVGID_4_)" id="svg_26" d="m40.69507,7.30848l1.00786,-0.7055l1.23966,1.76374c0.21164,0.2822 0.3729,0.58455 0.49384,0.91715c0.07055,0.25196 0.0504,0.52408 -0.05039,0.76596c-0.13102,0.30236 -0.34267,0.55432 -0.62487,0.73574c-0.33259,0.2318 -0.61479,0.36282 -0.85667,0.40314c-0.23181,0.04031 -0.47369,0 -0.69542,-0.10079c-0.24188,-0.12094 -0.45353,-0.29228 -0.61479,-0.514l0.86675,-0.80629c0.07055,0.11087 0.16126,0.21165 0.26204,0.29228c0.07055,0.05039 0.15118,0.08063 0.24189,0.08063c0.07055,0 0.1411,-0.03024 0.19149,-0.07055c0.10079,-0.06047 0.17134,-0.18141 0.16126,-0.30236c-0.03024,-0.17133 -0.10079,-0.34266 -0.21165,-0.47369l-1.411,-1.98546zm3.02356,1.11871l0.91715,-0.72565c0.10078,0.12094 0.2318,0.21165 0.3729,0.26204c0.20157,0.06047 0.41322,0.02016 0.58456,-0.11086c0.12094,-0.08063 0.22172,-0.1915 0.26204,-0.3326c0.06047,-0.18141 -0.04032,-0.38298 -0.22173,-0.44345c-0.03023,-0.01008 -0.06047,-0.02016 -0.09071,-0.02016c-0.12094,-0.01008 -0.33259,0.04032 -0.64502,0.17134c-0.51401,0.21165 -0.91715,0.29227 -1.2195,0.26204c-0.29228,-0.03024 -0.5644,-0.18141 -0.72566,-0.43338c-0.12094,-0.17133 -0.18141,-0.3729 -0.19149,-0.57447c0,-0.23181 0.06047,-0.46362 0.19149,-0.65511c0.1915,-0.27212 0.4233,-0.50392 0.7055,-0.68534c0.4233,-0.29227 0.7962,-0.43337 1.11872,-0.43337c0.32251,0 0.62486,0.15117 0.90706,0.46361l-0.90706,0.71557c-0.18142,-0.2318 -0.52409,-0.28219 -0.75589,-0.10078l-0.03024,0.03023c-0.10078,0.06048 -0.17133,0.15118 -0.21165,0.26205c-0.03023,0.08062 -0.01008,0.17133 0.04032,0.24188c0.04031,0.05039 0.10078,0.09071 0.17133,0.09071c0.08063,0.01008 0.22173,-0.03024 0.4233,-0.12095c0.50393,-0.21164 0.88691,-0.33259 1.14895,-0.3729c0.22173,-0.04031 0.45353,-0.02016 0.66518,0.07055c0.1915,0.08063 0.35275,0.22173 0.46362,0.39306c0.14109,0.20157 0.22172,0.44346 0.2318,0.69542c0.01008,0.26204 -0.06047,0.514 -0.20157,0.73573c-0.18141,0.27212 -0.41322,0.50393 -0.68534,0.68534c-0.55432,0.38299 -1.00785,0.54424 -1.37068,0.48377c-0.39306,-0.06047 -0.71557,-0.26204 -0.94738,-0.55432z"/>
  </g>
  <text transform="rotate(-39.47595977783203 43.2734375,8.054687499999996) " font-weight="bold" xml:space="preserve" text-anchor="start" font-family="Helvetica, Arial, sans-serif" font-size="5" id="svg_28" y="9.777353" x="40.218705" stroke-opacity="null" stroke-width="0" stroke="null" fill="#5f158e">JS</text>
  <ellipse stroke="#5f158e" transform="rotate(-43.42648696899414 43.4228515625,7.527307510375977) " ry="4.978157" rx="6.461673" id="svg_29" cy="7.527307" cx="43.422849" fill-opacity="0" stroke-width="NaN" fill="#000000"/>
 </g>
</svg>