<?xml version="1.0" encoding="UTF-8"?>
<svg xmlns="http://www.w3.org/2000/svg" xmlns:xlink="http://www.w3.org/1999/xlink" viewBox="0 0 24 24" width="24px" height="24px">
<g id="surface32176635">
<path style=" stroke:none;fill-rule:nonzero;fill:rgb(37.254903%,8.235294%,55.686277%);fill-opacity:1;" d="M 6.71875 1.921875 C 4.074219 1.921875 1.921875 4.074219 1.921875 6.71875 L 1.921875 17.28125 C 1.921875 19.925781 4.074219 22.078125 6.71875 22.078125 L 17.28125 22.078125 C 19.925781 22.078125 22.078125 19.925781 22.078125 17.28125 L 22.078125 6.71875 C 22.078125 4.074219 19.925781 1.921875 17.28125 1.921875 Z M 6.238281 7.679688 L 17.761719 7.679688 C 17.847656 7.679688 17.929688 7.691406 18.003906 7.714844 L 13.285156 12.425781 C 12.574219 13.136719 11.417969 13.136719 10.710938 12.425781 L 5.996094 7.714844 C 6.070312 7.691406 6.152344 7.679688 6.238281 7.679688 Z M 5.3125 8.394531 L 8.921875 12 L 5.3125 15.605469 C 5.289062 15.527344 5.28125 15.445312 5.28125 15.359375 L 5.28125 8.640625 C 5.28125 8.554688 5.289062 8.472656 5.3125 8.394531 Z M 18.6875 8.394531 C 18.710938 8.472656 18.71875 8.554688 18.71875 8.640625 L 18.71875 15.359375 C 18.71875 15.445312 18.710938 15.527344 18.6875 15.605469 L 15.070312 12 Z M 9.601562 12.675781 L 10.027344 13.109375 C 10.570312 13.652344 11.285156 13.921875 11.996094 13.921875 C 12.710938 13.921875 13.421875 13.652344 13.964844 13.109375 L 14.394531 12.675781 L 18.003906 16.285156 C 17.929688 16.308594 17.847656 16.320312 17.761719 16.320312 L 6.238281 16.320312 C 6.152344 16.320312 6.070312 16.308594 5.996094 16.285156 Z M 9.601562 12.675781 "/>
</g>
</svg>
