<svg width="24" height="24" xmlns="http://www.w3.org/2000/svg">

 <g>
  <title>background</title>
  <rect fill="none" id="canvas_background" height="26" width="26" y="-1" x="-1"/>
 </g>
 <g>
  <title>Layer 1</title>
  <path id="svg_1" fill="none" d="m0,0l48,0l0,48l-48,0l0,-48z"/>
  <path stroke="null" fill="#5f158e" id="svg_2" d="m6.462184,10.596607c1.483649,2.900982 3.868821,5.274047 6.789756,6.750165l2.266686,-2.260306c0.283336,-0.281898 0.690309,-0.363904 1.045767,-0.251145c1.153949,0.37928 2.395475,0.584297 3.678214,0.584297c0.571823,0 1.030312,0.456162 1.030312,1.025082l0,3.587787c0,0.568921 -0.458489,1.025082 -1.030312,1.025082c-9.674629,0 -17.515303,-7.800875 -17.515303,-17.426395c0,-0.568921 0.46364,-1.025082 1.030312,-1.025082l3.606092,0c0.571823,0 1.030312,0.456162 1.030312,1.025082c0,1.276227 0.206062,2.511451 0.587278,3.659543c0.113334,0.353653 0.030909,0.758561 -0.252426,1.040458l-2.266686,2.265431z"/>
 </g>
</svg>